<?xml version="1.0" encoding="UTF-8"?>
<svg width="100" height="100" viewBox="0 0 100 100" fill="none" xmlns="http://www.w3.org/2000/svg">
  <!-- Outer circle -->
  <circle cx="50" cy="50" r="45" stroke="#FF6B00" stroke-width="6" />
  
  <!-- Inner details -->
  <circle cx="50" cy="50" r="5" fill="#FF6B00" />
  
  <!-- Compass points -->
  <path d="M50 15L55 45L50 50L45 45L50 15Z" fill="#FF6B00" transform="rotate(0, 50, 50)" />
  <path d="M50 15L55 45L50 50L45 45L50 15Z" fill="#FF6B00" transform="rotate(90, 50, 50)" />
  <path d="M50 15L55 45L50 50L45 45L50 15Z" fill="#FF6B00" transform="rotate(180, 50, 50)" />
  <path d="M50 15L55 45L50 50L45 45L50 15Z" fill="#FF6B00" transform="rotate(270, 50, 50)" />
</svg>